<svg width="24" height="24" viewBox="0 0 24 24" fill="none" xmlns="http://www.w3.org/2000/svg">
<g clip-path="url(#clip0_10_82)">
<path d="M11.8346 5.80664C13.3702 5.80664 14.7173 5.28904 15.8758 4.25384C17.0344 3.21863 17.6137 2.01486 17.6137 0.642543C17.6137 0.491823 17.5999 0.277642 17.5723 0C17.37 0.0237979 17.2183 0.0436295 17.1171 0.0594947C15.7011 0.234013 14.4552 0.832926 13.3794 1.85621C12.3036 2.87952 11.7657 3.97422 11.7657 5.14032C11.7657 5.27515 11.7887 5.49729 11.8346 5.80664ZM17.3378 24C18.432 24 19.6411 23.3535 20.9652 22.0605C22.2893 20.7675 23.3007 19.2484 23.9996 17.5032C21.3974 16.3451 20.0963 14.6832 20.0963 12.5176C20.0963 10.709 21.1491 9.16214 23.2548 7.87705C21.7928 6.29846 19.8618 5.50916 17.462 5.50916C16.4505 5.50916 15.5264 5.64005 14.6897 5.90183L14.1656 6.06841L13.4621 6.30639C13.0024 6.45711 12.584 6.5325 12.207 6.5325C11.9128 6.5325 11.5266 6.44521 11.0485 6.27069L10.5106 6.08031L10.0003 5.90183C9.25544 5.63212 8.45549 5.49726 7.60037 5.49726C5.31082 5.49726 3.47184 6.1636 2.08339 7.49629C0.694942 8.82894 0.000732422 10.586 0.000732422 12.7675C0.000732422 15.8374 1.11331 18.6733 3.3385 21.2752C4.88327 23.0917 6.29469 24 7.57277 24C8.11529 24 8.65319 23.9088 9.18649 23.7263L9.86232 23.4883L10.4002 23.3218C11.1542 23.0917 11.8484 22.9767 12.4829 22.9767C13.1541 22.9767 13.9265 23.1235 14.8 23.417L15.2276 23.5597C16.1195 23.8532 16.8229 24 17.3378 24Z" fill="black"/>
</g>
<defs>
<clipPath id="clip0_10_82">
<rect width="24" height="24" fill="white"/>
</clipPath>
</defs>
</svg>
