<svg width="24" height="24" viewBox="0 0 24 24" fill="none" xmlns="http://www.w3.org/2000/svg">
<g clip-path="url(#clip0_9_79)">
<path d="M12.0001 24C18.6275 24 24.0001 18.6274 24.0001 12C24.0001 5.37261 18.6275 3.05176e-05 12.0001 3.05176e-05C5.37264 3.05176e-05 6.10352e-05 5.37261 6.10352e-05 12C6.10352e-05 18.6274 5.37264 24 12.0001 24Z" fill="#3C5A9A"/>
<path d="M15.9019 3.68338H13.2436C11.6661 3.68338 9.9114 4.34686 9.9114 6.63355C9.9191 7.43031 9.9114 8.19338 9.9114 9.05217H8.08643V11.9562H9.96788V20.3166H13.4251V11.9011H15.7071L15.9135 9.04402H13.3656C13.3656 9.04402 13.3713 7.77308 13.3656 7.40399C13.3656 6.50034 14.3058 6.55209 14.3624 6.55209C14.8098 6.55209 15.6798 6.5534 15.9032 6.55209V3.68338H15.9019Z" fill="white"/>
</g>
<defs>
<clipPath id="clip0_9_79">
<rect width="24" height="24" fill="white"/>
</clipPath>
</defs>
</svg>
